<svg viewBox="0 0 481.89 338" width="481.89" height="338" xmlns="http://www.w3.org/2000/svg" xmlns:xlink="http://www.w3.org/1999/xlink" id="Layer_1" overflow="hidden"><defs><clipPath id="clippath"><path d="M137.49 679.89 137.49 779.59 32.52 779.59 32.52 679.89" fill="none"/></clipPath><clipPath id="clippath-1"><rect x="157.42" y="679.89" width="104.97" height="99.7" fill="none"/></clipPath><clipPath id="clippath-2"><rect x="529.94" y="385.48" width="111.27" height="119.05" fill="none"/></clipPath></defs><text font-family="Helvetica,Helvetica" font-size="10" transform="translate(30.28 47.88)"><tspan x="0" y="0">Input</tspan></text><text font-family="Helvetica,Helvetica" font-size="10" transform="translate(423.01 47.88)"><tspan x="0" y="0">Output</tspan></text><text font-family="Helvetica,Helvetica" font-size="8" transform="translate(7.16 66.26)"><tspan x="0" y="0">Sample (-)</tspan></text><text font-family="Helvetica,Helvetica" font-size="6" transform="translate(77.56 23.91)"><tspan x="0" y="0">Observed </tspan><tspan x="-7.17" y="7.2">converted RN</tspan><tspan letter-spacing="-0.05em" x="29.51" y="7.2">A</tspan><tspan x="33.18" y="7.2"></tspan></text><text fill="#1C75BC" font-family="Helvetica,Helvetica" font-size="6" transform="translate(138.98 18.04)"><tspan x="0" y="0">RN</tspan><tspan letter-spacing="-0.05em" x="8.67" y="0">A</tspan><tspan xml:space="preserve" x="12.34" y="0"> activity</tspan></text><text fill="#ED1C24" font-family="Helvetica,Helvetica" font-size="6" transform="translate(138.37 33.7)"><tspan x="0" y="0">allele frequency</tspan></text><text font-family="Helvetica,Helvetica" font-size="6" transform="translate(137.27 51.94)"><tspan x="0" y="0">other signals</tspan><tspan x="-8.17" y="7.2">(background/target</tspan><tspan x="-13" y="14.4">conversion processes)</tspan></text><text font-family="Helvetica,Helvetica" font-size="8" transform="translate(7.54 126.59)"><tspan x="0" y="0">Sample (+)</tspan></text><text font-family="Helvetica,Helvetica" font-size="8" transform="translate(7.93 187.09)"><tspan x="0" y="0">Starting sites:</tspan></text><text font-family="Helvetica,Helvetica" font-size="8" transform="translate(412.84 83.71)"><tspan x="0" y="0">For each site:</tspan></text><text font-family="Helvetica,Helvetica" font-size="8" transform="translate(420.53 216.63)"><tspan x="0" y="0">Example:</tspan></text><text font-size="7" transform="translate(413.51 146.92)"><tspan font-family="Helvetica,Helvetica" x="0" y="0">Activity level (</tspan><tspan font-family="Symbol,Symbol" x="42.79" y="0">b</tspan></text><text font-family="Helvetica-Oblique,Helvetica" font-style="oblique" font-size="7" transform="matrix(0.58 0 0 0.58 460.14 149.25)"><tspan x="0" y="0">i</tspan></text><text font-family="Helvetica,Helvetica" font-size="7" transform="translate(461.05 146.92)"><tspan x="0" y="0">)</tspan></text><text font-size="7" transform="translate(399.71 173.6)"><tspan font-family="Helvetica,Helvetica" x="0" y="0">Conversion rate (</tspan><tspan font-family="Symbol,Symbol" x="53.69" y="0">g</tspan></text><text font-family="Symbol,Symbol" font-size="7" transform="matrix(0.58 0 0 0.58 456.28 175.93)"><tspan x="0" y="0">1</tspan></text><text font-size="7" transform="translate(458.32 173.6)"><tspan font-family="Helvetica,Helvetica" xml:space="preserve" x="0" y="0">or  </tspan><tspan font-family="Symbol,Symbol" x="12.06" y="0">g</tspan></text><text font-family="Symbol,Symbol" font-size="7" transform="matrix(0.58 0 0 0.58 473.25 175.93)"><tspan x="0" y="0">2</tspan></text><text font-family="Helvetica,Helvetica" font-size="7" transform="translate(475.29 173.6)"><tspan x="0" y="0">)</tspan></text><text font-size="7" transform="translate(406.06 120.23)"><tspan font-family="Helvetica,Helvetica" x="0" y="0">Allele frequency (</tspan><tspan font-family="Symbol,Symbol" x="54.08" y="0">k</tspan></text><text font-family="Helvetica-Oblique,Helvetica" font-style="oblique" font-size="7" transform="matrix(0.58 0 0 0.58 463.98 122.57)"><tspan x="0" y="0">i</tspan></text><text font-size="7" transform="translate(464.89 120.23)"><tspan font-family="Symbol,Symbol" x="0" y="0"></tspan><tspan font-family="Helvetica,Helvetica" x="1.75" y="0">)</tspan></text><text fill="#ED1C24" font-family="Helvetica,Helvetica" font-size="8" transform="translate(192.37 262.15)"><tspan x="0" y="0">Generalize to di</tspan><tspan letter-spacing="-0.02em" x="56.03" y="0">f</tspan><tspan x="58.11" y="0">ferent assays</tspan></text><text fill="#1C75BC" font-family="Helvetica,Helvetica" font-size="8" transform="translate(156.08 267.89)"><tspan x="0" y="0">Assay</tspan></text><text fill="#1C75BC" font-family="Helvetica,Helvetica" font-size="8" transform="translate(318.47 267.89)"><tspan x="0" y="0">Estimates</tspan></text><text font-family="Helvetica,Helvetica" font-size="7" transform="translate(151.15 326.8)"><tspan letter-spacing="-0.07em" x="0" y="0">P</tspan><tspan x="4.15" y="0">AR-CLI</tspan><tspan letter-spacing="-0.02em" x="27.1" y="0">P</tspan></text><text font-family="Helvetica,Helvetica" font-size="7" transform="translate(146.8 304.39)"><tspan x="0" y="0">SHAPE-Ma</tspan><tspan letter-spacing="-0.02em" x="35.79" y="0">P</tspan></text><text font-family="Helvetica,Helvetica" font-size="7" transform="translate(157.44 281.98)"><tspan x="0" y="0">BACS</tspan></text><text font-family="Helvetica,Helvetica" font-size="7" transform="translate(314.83 326.8)"><tspan x="0" y="0">Binding score</tspan></text><text font-family="Helvetica,Helvetica" font-size="7" transform="translate(320.86 304.39)"><tspan x="0" y="0">Reactivity</tspan></text><text font-family="Helvetica,Helvetica" font-size="7" transform="translate(309.19 281.98)"><tspan x="0" y="0">Modification level</tspan></text><text font-family="Helvetica,Helvetica" font-size="6" transform="translate(439.85 257.52)"><tspan x="0" y="0">Modification</tspan></text><text font-family="Helvetica,Helvetica" font-size="6" transform="translate(435.84 311.39)"><tspan x="0" y="0">Protein binding</tspan></text><text font-family="Helvetica,Helvetica" font-size="6" transform="translate(443.69 284.46)"><tspan x="0" y="0">Structure</tspan></text><text fill="#231F20" font-family="Helvetica,Helvetica" font-size="26" transform="translate(189.04 26.1)"><tspan x="0" y="0">MIRAGE</tspan></text><text font-family="Helvetica,Helvetica" font-size="7" transform="translate(189.22 42.67)"><tspan x="0" y="0">Mutation-encoded Inference of RN</tspan><tspan letter-spacing="-0.05em" x="107.01" y="0">A </tspan><tspan x="112.85" y="0">Activity via Generative E</tspan><tspan letter-spacing="-0.02em" x="188.72" y="0">f</tspan><tspan x="190.54" y="0">fects</tspan></text><text font-family="Helvetica,Helvetica" font-size="7" transform="translate(189.22 58.59)"><tspan letter-spacing="-0.05em" x="0" y="0">A</tspan><tspan xml:space="preserve" x="4.29" y="0"> probabilistic framework for site-specific RN</tspan><tspan letter-spacing="-0.05em" x="138.49" y="0">A</tspan><tspan xml:space="preserve" x="142.78" y="0"> activity inference </tspan><tspan x="0" y="8.4">across mutation-encoded RN</tspan><tspan letter-spacing="-0.05em" x="90.65" y="8.4">A</tspan><tspan xml:space="preserve" x="94.94" y="8.4"> assays</tspan></text><text font-family="Helvetica,Helvetica" font-size="8" transform="translate(8.31 249.31)"><tspan x="0" y="0">Other filtering and </tspan><tspan x="0" y="9.6">pre-processing</tspan></text><text font-family="Helvetica,Helvetica" font-size="7" transform="translate(13.72 282.77)"><tspan x="0" y="0">sequencing depth</tspan></text><text font-family="Helvetica,Helvetica" font-size="7" transform="translate(13.72 300.99)"><tspan x="0" y="0">base quality</tspan></text><text font-family="Helvetica,Helvetica" font-size="7" transform="translate(13.72 319.22)"><tspan x="0" y="0">mapping quality</tspan></text><text font-family="Helvetica,Helvetica" font-size="7" transform="translate(13.72 203.09)"><tspan x="0" y="0">Homozygous</tspan></text><text font-family="Helvetica,Helvetica" font-size="7" transform="translate(13.72 219.97)"><tspan x="0" y="0">Heterozygous</tspan></text><text font-family="Helvetica,Helvetica" font-size="8" transform="translate(97.72 187.78)"><tspan letter-spacing="-0.04em" x="0" y="0">T</tspan><tspan x="4.59" y="0">ranscriptomic </tspan><tspan x="16.53" y="9.6">loci (i)</tspan></text><text font-family="Helvetica,Helvetica" font-size="8" transform="translate(168.62 145.94)"><tspan letter-spacing="-0.11em" x="0" y="0">T</tspan><tspan x="4" y="0">arget </tspan><tspan x="-10.01" y="9.6">nucleotide N</tspan></text><text font-family="Helvetica,Helvetica" font-size="8" transform="translate(167.79 216.46)"><tspan x="0" y="0">Other</tspan><tspan x="-8.23" y="9.6">nucleotide</tspan></text><text fill="#1C75BC" font-family="Helvetica,Helvetica" font-size="8" transform="translate(264.44 237.52)"><tspan x="0" y="0">Sample (+)</tspan></text><text fill="#1C75BC" font-family="Helvetica,Helvetica" font-size="8" transform="translate(326.27 237.52)"><tspan x="0" y="0">Both samples</tspan></text><text fill="#1C75BC" font-family="Helvetica,Helvetica" font-size="8" transform="translate(157.7 236.22)"><tspan x="0" y="0">Each site</tspan></text><text font-family="Helvetica,Helvetica" font-size="8" transform="translate(210.34 115.12)"><tspan x="0" y="0">Active N</tspan></text><text font-family="Helvetica,Helvetica" font-size="8" transform="translate(309.64 98.19)"><tspan x="0" y="0">X</tspan></text><text font-family="Helvetica,Helvetica" font-size="8" transform="translate(309.42 133.8)"><tspan x="0" y="0">N</tspan></text><text font-family="Helvetica,Helvetica" font-size="8" transform="translate(309.64 181.92)"><tspan x="0" y="0">X</tspan></text><text font-family="Symbol,Symbol" font-size="9" transform="translate(345.92 167.61)"><tspan x="0" y="0">δ</tspan></text><text font-family="Helvetica,Helvetica" font-size="8" transform="translate(309.42 219.12)"><tspan x="0" y="0">N</tspan></text><text font-family="Helvetica,Helvetica" font-size="8" transform="translate(204.42 196.39)"><tspan x="0" y="0">Baseline N</tspan></text><text font-family="Helvetica,Helvetica" font-size="8" transform="translate(207.92 291.16)"><tspan x="0" y="0">Estimate parameters</tspan></text><text font-family="Helvetica,Helvetica" font-size="8" transform="translate(235.25 309.4)"><tspan x="0" y="0">e.g.</tspan></text><text font-family="Symbol,Symbol" font-size="8" transform="translate(250.81 309.4)"><tspan x="0" y="0">b</tspan></text><text font-family="Helvetica-Oblique,Helvetica" font-style="oblique" font-size="8" transform="matrix(0.58 0 0 0.58 255.21 312.07)"><tspan x="0" y="0">i</tspan></text><text font-family="Helvetica,Helvetica" font-size="8" transform="translate(256.25 309.4)"><tspan x="0" y="0"></tspan></text><text fill="#ED1C24" font-family="Helvetica,Helvetica" font-size="8" transform="translate(99.75 144.08)"><tspan x="0" y="0">Allele frequency</tspan></text><text fill="#ED1C24" font-family="Helvetica,Helvetica" font-size="8" transform="translate(169.96 103.17)"><tspan x="0" y="0">Activity level</tspan></text><text fill="#ED1C24" font-family="Helvetica,Helvetica" font-size="8" transform="translate(262.31 82.55)"><tspan x="0" y="0">On-target</tspan><tspan x="-10.45" y="9.6">conversion rate</tspan></text><text fill="#ED1C24" font-family="Helvetica,Helvetica" font-size="8" transform="translate(258.94 162.97)"><tspan x="0" y="0">Background</tspan><tspan x="-6" y="9.6">conversion rate</tspan></text><text fill="#ED1C24" font-family="Helvetica,Helvetica" font-size="8" transform="translate(328.68 108.59)"><tspan x="0" y="0">Sequencing</tspan><tspan x="-1.99" y="9.6">error rate on </tspan><tspan x="-4.22" y="19.2">all nucleotides</tspan></text><path d="M8.97 78.62C20.81 67.56 30.83 88.37 40.18 78.62" stroke="#1C75BC" stroke-width="0.5" stroke-miterlimit="10" fill="none"/><path d="M6.02 92.75C17.86 81.69 27.88 102.5 37.23 92.75" stroke="#EC008C" stroke-width="0.5" stroke-miterlimit="10" fill="none"/><path d="M8.97 108.71C20.81 97.65 30.83 118.46 40.18 108.71" stroke="#1C75BC" stroke-width="0.5" stroke-miterlimit="10" fill="none"/><path d="M40.22 73.9C52.06 62.84 62.08 83.65 71.43 73.9" stroke="#EC008C" stroke-width="0.5" stroke-miterlimit="10" fill="none"/><path d="M40.22 89.74C52.06 78.68 62.08 99.49 71.43 89.74" stroke="#1C75BC" stroke-width="0.5" stroke-miterlimit="10" fill="none"/><path d="M40.22 104.79C52.06 93.73 62.08 114.54 71.43 104.79" stroke="#EC008C" stroke-width="0.5" stroke-miterlimit="10" fill="none"/><path d="M14.75 140.85C26.59 129.79 36.61 150.6 45.96 140.85" stroke="#1C75BC" stroke-width="0.5" stroke-miterlimit="10" fill="none"/><path d="M7.54 154.98C19.38 143.92 29.4 164.73 38.75 154.98" stroke="#EC008C" stroke-width="0.5" stroke-miterlimit="10" fill="none"/><path d="M14.75 170.94C26.59 159.88 36.61 180.69 45.96 170.94" stroke="#1C75BC" stroke-width="0.5" stroke-miterlimit="10" fill="none"/><path d="M44.29 136.13C56.13 125.07 66.15 145.88 75.5 136.13" stroke="#EC008C" stroke-width="0.5" stroke-miterlimit="10" fill="none"/><path d="M44.29 151.97C56.13 140.91 66.15 161.72 75.5 151.97" stroke="#1C75BC" stroke-width="0.5" stroke-miterlimit="10" fill="none"/><path d="M44.29 167.02C56.13 155.96 66.15 176.77 75.5 167.02" stroke="#EC008C" stroke-width="0.5" stroke-miterlimit="10" fill="none"/><g><line x1="131.29" y1="175.8" x2="157.42" y2="157.66"/><g><line x1="131.29" y1="175.8" x2="154.52" y2="159.68" stroke="#231F20" stroke-width="0.5" stroke-miterlimit="10" fill="none"/><path d="M157.42 157.66 154.49 162.17 154.3 159.83 152.17 158.83 157.42 157.66Z" fill="#231F20"/></g></g><g><line x1="186.06" y1="136.41" x2="212.18" y2="118.28"/><g><line x1="186.06" y1="136.41" x2="209.28" y2="120.29" stroke="#231F20" stroke-width="0.5" stroke-miterlimit="10" fill="none"/><path d="M212.18 118.28 209.26 122.78 209.07 120.44 206.94 119.45 212.18 118.28Z" fill="#231F20"/></g></g><g><line x1="252.03" y1="110.07" x2="305.14" y2="95.65"/><g><line x1="252.03" y1="110.07" x2="301.73" y2="96.58" stroke="#231F20" stroke-width="0.5" stroke-miterlimit="10" fill="none"/><path d="M305.14 95.65 300.87 98.92 301.48 96.65 299.81 95 305.14 95.65Z" fill="#231F20"/></g></g><g><line x1="254.68" y1="194.55" x2="305.14" y2="179.86"/><g><line x1="254.68" y1="194.55" x2="301.75" y2="180.85" stroke="#231F20" stroke-width="0.5" stroke-miterlimit="10" fill="none"/><path d="M305.14 179.86 300.93 183.2 301.5 180.92 299.79 179.3 305.14 179.86Z" fill="#231F20"/></g></g><g><line x1="131.29" y1="202.98" x2="156.58" y2="221.88"/><g><line x1="131.29" y1="202.98" x2="153.76" y2="219.76" stroke="#231F20" stroke-width="0.5" stroke-miterlimit="10" fill="none"/><path d="M156.58 221.88 151.38 220.53 153.54 219.61 153.81 217.27 156.58 221.88Z" fill="#231F20"/></g></g><g><line x1="182.99" y1="160.64" x2="206.75" y2="189.37"/><g><line x1="182.99" y1="160.64" x2="204.5" y2="186.65" stroke="#231F20" stroke-width="0.5" stroke-miterlimit="10" fill="none"/><path d="M206.75 189.37 202.01 186.83 204.33 186.44 205.14 184.24 206.75 189.37Z" fill="#231F20"/></g></g><g><line x1="213.72" y1="296.81" x2="278.93" y2="297.01"/><g><line x1="213.72" y1="296.81" x2="275.4" y2="297" stroke="#231F20" stroke-width="0.5" stroke-miterlimit="10" fill="none"/><path d="M278.93 297.01 273.95 299.03 275.14 297 273.96 294.97 278.93 297.01Z" fill="#231F20"/></g></g><g><line x1="251.93" y1="117.42" x2="304.48" y2="131.53"/><g><line x1="251.93" y1="117.42" x2="301.07" y2="130.62" stroke="#231F20" stroke-width="0.5" stroke-miterlimit="10" fill="none"/><path d="M304.48 131.53 299.15 132.2 300.81 130.55 300.2 128.28 304.48 131.53Z" fill="#231F20"/></g></g><g><line x1="254.68" y1="197.49" x2="303.21" y2="217.3"/><g><line x1="254.68" y1="197.49" x2="299.95" y2="215.97" stroke="#231F20" stroke-width="0.5" stroke-miterlimit="10" fill="none"/><path d="M303.21 217.3 297.84 217.31 299.7 215.87 299.38 213.54 303.21 217.3Z" fill="#231F20"/></g></g><text font-family="Symbol,Symbol" font-size="8" transform="translate(136.73 162.68)"><tspan x="0" y="0">k</tspan></text><text font-family="Helvetica-Oblique,Helvetica" font-style="oblique" font-size="8" transform="matrix(0.58 0 0 0.58 141.12 165.34)"><tspan x="0" y="0">i</tspan></text><text font-family="Symbol,Symbol" font-size="8" transform="translate(142.16 162.68)"><tspan x="0" y="0"></tspan></text><text font-family="Symbol,Symbol" font-size="8" transform="translate(132.53 219.86)"><tspan x="0" y="0">1-k</tspan></text><text font-family="Helvetica-Oblique,Helvetica" font-style="oblique" font-size="8" transform="matrix(0.58 0 0 0.58 145.31 222.53)"><tspan x="0" y="0">i</tspan></text><text font-family="Symbol,Symbol" font-size="8" transform="translate(146.35 219.86)"><tspan x="0" y="0"></tspan></text><text font-family="Symbol,Symbol" font-size="8" transform="translate(188.5 122.93)"><tspan x="0" y="0">b</tspan></text><text font-family="Helvetica-Oblique,Helvetica" font-style="oblique" font-size="8" transform="matrix(0.58 0 0 0.58 192.89 125.6)"><tspan x="0" y="0">i</tspan></text><text font-family="Symbol,Symbol" font-size="8" transform="translate(184.3 183.5)"><tspan x="0" y="0">1-b</tspan></text><text font-family="Helvetica-Oblique,Helvetica" font-style="oblique" font-size="8" transform="matrix(0.58 0 0 0.58 197.1 186.17)"><tspan x="0" y="0">i</tspan></text><text font-family="Symbol,Symbol" font-size="8" transform="translate(270.53 98.98)"><tspan x="0" y="0">g</tspan></text><text font-family="Symbol,Symbol" font-size="8" transform="matrix(0.58 0 0 0.58 273.82 101.65)"><tspan x="0" y="0">1</tspan></text><text font-family="Symbol,Symbol" font-size="8" transform="translate(266.34 130.33)"><tspan x="0" y="0">1-g</tspan></text><text font-family="Symbol,Symbol" font-size="8" transform="matrix(0.58 0 0 0.58 278.02 133)"><tspan x="0" y="0">1</tspan></text><text font-family="Symbol,Symbol" font-size="8" transform="translate(266.34 215.19)"><tspan x="0" y="0">1-g</tspan></text><text font-family="Symbol,Symbol" font-size="8" transform="matrix(0.58 0 0 0.58 278.02 217.86)"><tspan x="0" y="0">2</tspan></text><text font-family="Symbol,Symbol" font-size="8" transform="translate(270.53 184.28)"><tspan x="0" y="0">g</tspan></text><text font-family="Symbol,Symbol" font-size="8" transform="matrix(0.58 0 0 0.58 273.82 186.95)"><tspan x="0" y="0">2</tspan></text><g><path d="M106.2 326.1C106.2 326.1 108.86 328.79 111.81 325.25 114.76 321.71 116.09 323.41 117.27 325.25 118.45 327.09 118.3 327.49 119.78 327.08 121.26 326.67 121.7 323.39 123.62 323.19 125.54 322.99 126.28 326.8 128.34 327.23 130.4 327.66 131.44 323.52 132.03 323.19 132.62 322.86 133.65 323.19 133.65 323.19" stroke="#231F20" stroke-width="0.5" stroke-miterlimit="10" fill="none"/><path d="M110.07 318.03C109.24 320.34 106.93 322.82 110.07 324.47 113.21 326.12 112.38 322.49 113.87 322.32 115.36 322.15 115.52 324.14 116.18 322.98 116.84 321.82 114.86 320.67 116.84 318.85 118.82 317.03 121.13 315.71 116.84 313.73 112.55 311.75 117.01 312.08 113.87 310.59 110.73 309.1 110.07 318.02 110.07 318.02Z" stroke="#231F20" stroke-width="0.5" stroke-miterlimit="10" fill="#F7941D"/></g><g><path d="M106.51 305.82C109.32 307.25 110.4 304.19 110.4 304.19L110.4 295.95C107.48 292.58 110.17 289.16 112.81 289.16 115.45 289.16 117.95 292.55 115.45 295.95L115.45 304.19C115.85 305.87 116.71 306.04 116.71 306.04 116.93 306.21 118.69 306.25 119.26 306.1 120.78 305.69 121.23 302.45 123.21 302.25 125.19 302.05 125.94 305.82 128.07 306.24 130.2 306.66 131.26 302.57 131.87 302.24 132.48 301.91 133.54 302.24 133.54 302.24" stroke="#231F20" stroke-width="0.5" stroke-miterlimit="10" fill="none"/><path d="M110.4 297.12C110.4 297.06 115.45 297.12 115.45 297.12" stroke="#231F20" stroke-width="0.5" stroke-miterlimit="10" fill="none"/><line x1="110.4" y1="298.7" x2="115.45" y2="298.7" stroke="#231F20" stroke-width="0.5" stroke-miterlimit="10" fill="none"/><line x1="110.4" y1="301.86" x2="115.45" y2="301.86" stroke="#231F20" stroke-width="0.5" stroke-miterlimit="10" fill="none"/><line x1="110.4" y1="303.45" x2="115.45" y2="303.45" stroke="#231F20" stroke-width="0.5" stroke-miterlimit="10" fill="none"/><line x1="110.4" y1="300.28" x2="115.45" y2="300.28" stroke="#231F20" stroke-width="0.5" stroke-miterlimit="10" fill="none"/></g><path d="M402.58 313.17C402.58 313.17 405.24 315.86 408.19 312.32 411.14 308.78 412.47 310.48 413.65 312.32 414.83 314.16 414.68 314.56 416.16 314.15 417.64 313.74 418.08 310.46 420 310.26 421.92 310.06 422.66 313.87 424.72 314.3 426.78 314.73 427.82 310.59 428.41 310.26 429 309.93 430.03 310.26 430.03 310.26" stroke="#231F20" stroke-width="0.5" stroke-miterlimit="10" fill="none"/><path d="M406.44 305.1C405.61 307.41 403.3 309.89 406.44 311.54 409.58 313.19 408.75 309.56 410.24 309.39 411.73 309.22 411.89 311.21 412.55 310.05 413.21 308.89 411.23 307.74 413.21 305.92 415.19 304.1 417.5 302.78 413.21 300.8 408.92 298.82 413.38 299.15 410.24 297.66 407.1 296.17 406.44 305.09 406.44 305.09Z" stroke="#231F20" stroke-width="0.5" stroke-miterlimit="10" fill="#F7941D"/><g><path d="M402.85 287.02C405.66 288.45 406.74 285.39 406.74 285.39L406.74 277.15C403.82 273.78 406.51 270.36 409.15 270.36 411.79 270.36 414.29 273.75 411.79 277.15L411.79 285.39C412.19 287.07 413.05 287.24 413.05 287.24 413.27 287.41 415.03 287.45 415.6 287.3 417.12 286.89 417.57 283.65 419.55 283.45 421.53 283.25 422.28 287.02 424.41 287.44 426.54 287.86 427.6 283.77 428.21 283.44 428.82 283.11 429.88 283.44 429.88 283.44" stroke="#231F20" stroke-width="0.5" stroke-miterlimit="10" fill="none"/><path d="M406.74 278.33C406.74 278.27 411.79 278.33 411.79 278.33" stroke="#231F20" stroke-width="0.5" stroke-miterlimit="10" fill="none"/><line x1="406.74" y1="279.9" x2="411.79" y2="279.9" stroke="#231F20" stroke-width="0.5" stroke-miterlimit="10" fill="none"/><line x1="406.74" y1="283.07" x2="411.79" y2="283.07" stroke="#231F20" stroke-width="0.5" stroke-miterlimit="10" fill="none"/><line x1="406.74" y1="284.65" x2="411.79" y2="284.65" stroke="#231F20" stroke-width="0.5" stroke-miterlimit="10" fill="none"/><line x1="406.74" y1="281.48" x2="411.79" y2="281.48" stroke="#231F20" stroke-width="0.5" stroke-miterlimit="10" fill="none"/></g><path d="M80.54 40.58C81.87 38.16 82.81 37.82 83.41 37.94 84.25 38.1 84.43 39.15 85.98 40.81 87.3 42.22 88.2 43.19 89.08 42.87 90.62 42.32 90.7 38.36 91.88 38.28 92.18 38.26 92.37 38.51 94 41.03 95.59 43.49 95.83 43.89 96.27 43.9 96.81 43.91 97.4 43.03 98.54 41.26 99.83 39.26 99.94 38.67 100.43 38.62 100.93 38.57 101.18 39.16 102.92 41.6 104.24 43.46 104.48 43.66 104.81 43.66 105.71 43.68 106.47 42.19 107 41.14 107.47 40.22 107.74 39.34 107.91 38.73" stroke="#231F20" stroke-width="0.5" stroke-miterlimit="10" fill="none"/><path d="M69.29 134.85 69.29 138.8" stroke="#231F20" stroke-width="0.5" stroke-miterlimit="10" fill="#ED1C24"/><circle cx="69.29" cy="134.85" r="0.81" stroke="#231F20" stroke-width="0.5" stroke-miterlimit="10" fill="#ED1C24"/><path d="M51.89 144.68 51.89 148.63" stroke="#231F20" stroke-width="0.5" stroke-miterlimit="10" fill="#ED1C24"/><circle cx="51.89" cy="144.68" r="0.81" stroke="#231F20" stroke-width="0.5" stroke-miterlimit="10" fill="#ED1C24"/><path d="M20.35 134.04 20.35 137.99" stroke="#231F20" stroke-width="0.5" stroke-miterlimit="10" fill="#ED1C24"/><circle cx="20.35" cy="134.04" r="0.81" stroke="#231F20" stroke-width="0.5" stroke-miterlimit="10" fill="#ED1C24"/><path d="M20.85 163.78 20.85 167.73" stroke="#231F20" stroke-width="0.5" stroke-miterlimit="10" fill="#ED1C24"/><circle cx="20.85" cy="163.78" r="0.81" stroke="#231F20" stroke-width="0.5" stroke-miterlimit="10" fill="#ED1C24"/><path d="M33.03 153.71 33.03 157.66" stroke="#231F20" stroke-width="0.5" stroke-miterlimit="10" fill="#ED1C24"/><circle cx="33.03" cy="153.71" r="0.81" stroke="#231F20" stroke-width="0.5" stroke-miterlimit="10" fill="#ED1C24"/><path d="M68.74 165.75 68.74 169.7" stroke="#231F20" stroke-width="0.5" stroke-miterlimit="10" fill="#ED1C24"/><circle cx="68.74" cy="165.75" r="0.81" stroke="#231F20" stroke-width="0.5" stroke-miterlimit="10" fill="#ED1C24"/><text fill="#231F20" font-family="Helvetica,Helvetica" font-size="7" transform="translate(108.85 12.83)"><tspan x="0" y="0">MIRAGE</tspan></text><rect x="2.35" y="31.92" rx="8.52" ry="8.52" width="75.77" height="302.41" stroke="#BE1E2D" stroke-width="0.5" stroke-miterlimit="10" fill="none"/><rect x="91.4" y="70.56" rx="8.52" ry="8.52" width="290.7" height="175.18" stroke="#BE1E2D" stroke-width="0.5" stroke-miterlimit="10" fill="none"/><rect x="398.27" y="35.34" rx="8.52" ry="8.52" width="80.84" height="298.99" stroke="#BE1E2D" stroke-width="0.5" stroke-miterlimit="10" fill="none"/><rect x="91.4" y="251.08" rx="8.52" ry="8.52" width="290.7" height="83.25" stroke="#BE1E2D" stroke-width="0.5" stroke-miterlimit="10" stroke-dasharray="5.02 5.02" fill="none"/><g><rect x="79.64" y="172.45" width="6.25" height="6.03" stroke="#231F20" stroke-width="0.5" stroke-miterlimit="10" fill="#231F20"/><path d="M85.89 165.89 85.89 185.03 90.45 175.46" fill="#231F20"/></g><g><rect x="385.34" y="172.45" width="6.25" height="6.03" stroke="#231F20" stroke-width="0.5" stroke-miterlimit="10" fill="#231F20"/><path d="M391.59 165.89 391.59 185.03 396.15 175.46" fill="#231F20"/></g><rect x="95.57" y="74.29" width="149.06" height="169.02" stroke="#D1D3D4" stroke-width="0.5" stroke-miterlimit="10" fill="none"/><rect x="248.62" y="74.29" width="71.03" height="169.02" stroke="#D1D3D4" stroke-width="0.5" stroke-miterlimit="10" fill="none"/><rect x="322.31" y="74.29" width="54.52" height="169.02" stroke="#D1D3D4" stroke-width="0.5" stroke-miterlimit="10" fill="none"/><circle cx="85.32" cy="38.68" r="0.81" stroke="#231F20" stroke-width="0.5" stroke-miterlimit="10" fill="#ED1C24"/><circle cx="88.27" cy="41.98" r="0.81" stroke="#231F20" stroke-width="0.5" stroke-miterlimit="10" fill="#ED1C24"/><circle cx="94.86" cy="40.91" r="0.81" stroke="#231F20" stroke-width="0.5" stroke-miterlimit="10" fill="#ED1C24"/><circle cx="100.4" cy="38.26" r="0.81" stroke="#231F20" stroke-width="0.5" stroke-miterlimit="10" fill="#ED1C24"/><circle cx="105.04" cy="42.48" r="0.81" stroke="#231F20" stroke-width="0.5" stroke-miterlimit="10" fill="#ED1C24"/><g><path d="M118.52 46.05 121.12 18.84 123.14 17.17 125.17 18.84 127.77 46.05 123.14 50.22 118.52 46.05" fill="none"/><path d="M118.41 46.05 121.01 18.84 123.04 17.17 123.04 50.22 118.41 46.05" fill="#D8EAFF" opacity="0.3"/><path d="M123.14 17.2 125.17 18.87 127.77 46.08 123.14 50.25 123.14 17.2Z" fill="#C3DCFF" opacity="0.26"/><line x1="118.52" y1="46.05" x2="121.12" y2="18.84" stroke="#111111" stroke-width="0.25" stroke-linecap="round" stroke-linejoin="round" fill="none"/><path d="M121.12 18.84 123.14 17.17 125.15 18.8 127.75 46.01 123.14 50.22 118.52 46.05" stroke="#111111" stroke-width="0.25" stroke-linecap="round" stroke-linejoin="round" fill="none"/><line x1="123.14" y1="17.17" x2="123.14" y2="50.22" stroke="#3F73AA" stroke-width="0.25" stroke-linecap="round" stroke-linejoin="round" fill="none" opacity="0.95"/><path d="M121.12 18.84 123.14 21.34 125.17 18.84" stroke="#3F73AA" stroke-width="0.25" stroke-linecap="round" stroke-linejoin="round" fill="none" opacity="0.95"/><line x1="121.12" y1="18.84" x2="123.14" y2="21.34" stroke="#8EB9F0" stroke-width="0.25" stroke-linecap="round" stroke-linejoin="round" fill="none" opacity="0.72"/><line x1="125.17" y1="18.84" x2="123.14" y2="21.34" stroke="#8EB9F0" stroke-width="0.25" stroke-linecap="round" stroke-linejoin="round" fill="none" opacity="0.72"/><line x1="121.31" y1="19.4" x2="122.66" y2="44.94" stroke="#8EB9F0" stroke-width="0.25" stroke-linecap="round" stroke-linejoin="round" fill="none" opacity="0.72"/><line x1="124.97" y1="19.4" x2="123.62" y2="44.94" stroke="#8EB9F0" stroke-width="0.25" stroke-linecap="round" stroke-linejoin="round" fill="none" opacity="0.72"/><line x1="118.52" y1="46.05" x2="123.14" y2="43.55" stroke="#3F73AA" stroke-width="0.25" stroke-linecap="round" stroke-linejoin="round" fill="none" opacity="0.95"/><line x1="127.77" y1="46.05" x2="123.14" y2="43.55" stroke="#3F73AA" stroke-width="0.25" stroke-linecap="round" stroke-linejoin="round" fill="none" opacity="0.95"/><line x1="123.14" y1="43.55" x2="123.14" y2="50.22" stroke="#3F73AA" stroke-width="0.25" stroke-linecap="round" stroke-linejoin="round" fill="none" opacity="0.95"/><path d="M120.35 31.06 123.14 32.45 125.94 31.06" stroke="#FF6B73" stroke-width="0.25" stroke-linecap="round" fill="none" opacity="0.9"/><path d="M119.87 35.22 123.14 37.06 126.42 35.22" stroke="#2F7DF6" stroke-width="0.25" stroke-linecap="round" fill="none" opacity="0.9"/><path d="M120.25 34.39 123.14 35.5 126.03 34.39" stroke="#FF6B73" stroke-width="0.25" stroke-linecap="round" fill="none" opacity="0.9"/><path d="M119.87 37.45 123.14 39.11 126.42 37.45" stroke="#2F7DF6" stroke-width="0.25" stroke-linecap="round" fill="none" opacity="0.9"/></g><g><line x1="112.65" y1="32.17" x2="116.34" y2="32.17" stroke="#231F20" stroke-width="2" stroke-miterlimit="10" fill="none"/><path d="M118.99 32.17C117.74 32.63 116.19 33.42 115.23 34.26L115.99 32.17 115.23 30.08C116.19 30.92 117.74 31.71 118.99 32.17Z" fill="#231F20"/></g><g><line x1="137.05" y1="16.51" x2="128.03" y2="32.17" fill="#FFFFFF"/><g><line x1="136" y1="18.34" x2="128.03" y2="32.17" stroke="#1C75BC" stroke-width="0.5" stroke-miterlimit="10" fill="none"/><path d="M137.05 16.51C136.23 17.19 135.07 17.94 134.11 18.27L135.85 18.58 136.99 19.93C136.79 18.93 136.87 17.55 137.04 16.51Z" fill="#1C75BC"/></g></g><g><line x1="137.05" y1="47.88" x2="128.03" y2="32.17" fill="#FFFFFF"/><g><line x1="136" y1="46.05" x2="135.75" y2="45.62" stroke="#231F20" stroke-width="0.5" stroke-miterlimit="10" fill="none"/><line x1="135.25" y1="44.75" x2="128.53" y2="33.04" stroke="#231F20" stroke-width="0.5" stroke-miterlimit="10" stroke-dasharray="1 1" fill="none"/><line x1="128.28" y1="32.6" x2="128.03" y2="32.17" stroke="#231F20" stroke-width="0.5" stroke-miterlimit="10" fill="none"/><path d="M137.05 47.88C136.87 46.83 136.81 45.45 137 44.46L135.86 45.81 134.12 46.12C135.08 46.45 136.24 47.21 137.05 47.89Z" fill="#231F20"/></g></g><g><line x1="137.05" y1="32.17" x2="128.03" y2="32.17" fill="#FFFFFF"/><g><line x1="134.94" y1="32.17" x2="128.03" y2="32.17" stroke="#ED1C24" stroke-width="0.5" stroke-miterlimit="10" fill="none"/><path d="M137.05 32.17C136.06 31.8 134.82 31.17 134.06 30.51L134.66 32.17 134.06 33.83C134.82 33.16 136.06 32.53 137.05 32.17Z" fill="#ED1C24"/></g></g><g><text font-family="Symbol,Symbol" font-size="8" transform="translate(109.68 274.4)"><tspan x="0" y="0">y</tspan></text><text font-family="Helvetica,Helvetica" font-size="8" transform="translate(115.18 274.4)"><tspan x="0" y="0"></tspan></text><path d="M102.39 282.61C102.39 282.61 105.36 285.61 108.67 281.66 111.98 277.71 113.46 279.6 114.78 281.66 116.1 283.72 115.94 284.16 117.59 283.7 119.24 283.24 119.74 279.57 121.88 279.35 124.02 279.13 124.85 283.38 127.16 283.86 129.47 284.34 130.63 279.71 131.29 279.34 131.95 278.97 133.11 279.34 133.11 279.34" stroke="#231F20" stroke-width="0.5" stroke-miterlimit="10" fill="none"/><circle cx="112.27" cy="279.11" r="0.81" stroke="#231F20" stroke-width="0.5" stroke-miterlimit="10" fill="#ED1C24"/></g><g><text font-family="Symbol,Symbol" font-size="8" transform="translate(408.3 250.69)"><tspan x="0" y="0">y</tspan></text><text font-family="Helvetica,Helvetica" font-size="8" transform="translate(413.79 250.69)"><tspan x="0" y="0"></tspan></text><path d="M401 258.89C401 258.89 403.97 261.89 407.28 257.94 410.58 253.99 412.07 255.88 413.39 257.94 414.71 260 414.55 260.44 416.2 259.98 417.85 259.52 418.35 255.85 420.49 255.63 422.63 255.41 423.46 259.66 425.77 260.14 428.08 260.62 429.24 255.99 429.9 255.62 430.56 255.25 431.72 255.62 431.72 255.62" stroke="#231F20" stroke-width="0.5" stroke-miterlimit="10" fill="none"/><circle cx="410.89" cy="255.4" r="0.81" stroke="#231F20" stroke-width="0.5" stroke-miterlimit="10" fill="#ED1C24"/></g><g clip-path="url(#clippath)"><line x1="-72.45" y1="871.23" x2="242.46" y2="590.65" stroke="#8C8C8C" stroke-width="0.38" stroke-linejoin="round" stroke-dasharray="1.5 1.5" fill="none"/></g><g clip-path="url(#clippath-1)"><line x1="52.45" y1="871.23" x2="367.35" y2="590.65" stroke="#8C8C8C" stroke-width="0.38" stroke-linejoin="round" stroke-dasharray="1.5 1.5" fill="none"/></g><g clip-path="url(#clippath-2)"><line x1="418.68" y1="612.75" x2="752.47" y2="271.85" stroke="#999999" stroke-width="0.43" stroke-linejoin="round" stroke-dasharray="1.73 1.73" fill="none"/></g></svg>